<?xml version="1.0" standalone="no"?>
<!DOCTYPE svg PUBLIC "-//W3C//DTD SVG 20010904//EN"
 "http://www.w3.org/TR/2001/REC-SVG-20010904/DTD/svg10.dtd">
<svg version="1.0" xmlns="http://www.w3.org/2000/svg"
 width="700.000000pt" height="700.000000pt" viewBox="0 0 700.000000 700.000000"
 preserveAspectRatio="xMidYMid meet">
<metadata>
Created by potrace 1.11, written by Peter Selinger 2001-2013
</metadata>
<g transform="translate(0.000000,700.000000) scale(0.100000,-0.100000)"
fill="#000000" stroke="none">
<path d="M3207 6290 c-541 -62 -1047 -271 -1467 -606 -109 -87 -337 -315 -424
-424 -314 -394 -509 -842 -593 -1365 -26 -158 -26 -632 0 -790 115 -714 447
-1310 976 -1751 406 -340 860 -543 1406 -631 158 -25 632 -25 790 0 546 88
1000 291 1406 631 530 443 869 1053 977 1759 24 161 24 626 -1 782 -70 439
-212 809 -442 1154 -115 173 -197 274 -350 427 -431 434 -953 698 -1580 800
-117 18 -575 28 -698 14z m438 -1301 c294 -25 533 -111 737 -265 80 -60 266
-243 287 -283 9 -16 -14 -37 -207 -182 -119 -90 -221 -165 -227 -166 -5 -2
-24 21 -42 50 -102 168 -279 289 -485 331 -99 20 -318 21 -413 1 -153 -32
-278 -122 -305 -220 -24 -87 12 -195 83 -249 88 -66 115 -74 602 -186 345 -80
478 -120 610 -184 267 -130 394 -320 412 -612 22 -366 -145 -648 -486 -819
-227 -114 -482 -163 -791 -152 -245 9 -426 52 -639 153 -182 86 -372 236 -487
385 l-43 57 227 165 227 166 30 -37 c151 -187 320 -299 530 -354 79 -20 113
-23 285 -23 213 0 288 13 402 71 148 75 216 233 157 364 -57 126 -142 162
-694 294 -517 124 -655 182 -823 349 -160 157 -219 428 -152 691 55 216 209
399 436 518 231 120 471 163 769 137z"/>
</g>
</svg>
